<?xml version="1.0" standalone="no"?>
<!DOCTYPE svg PUBLIC "-//W3C//DTD SVG 20010904//EN"
 "http://www.w3.org/TR/2001/REC-SVG-20010904/DTD/svg10.dtd">
<svg version="1.0" xmlns="http://www.w3.org/2000/svg"
 width="3000.000000pt" height="3000.000000pt" viewBox="0 0 3000.000000 3000.000000"
 preserveAspectRatio="xMidYMid meet">
<metadata>
Created by potrace 1.14, written by Peter Selinger 2001-2017
</metadata>
<g transform="translate(0.000000,3000.000000) scale(0.100000,-0.100000)"
fill="#000000" stroke="none">
<path d="M18127 25233 c-1 0 -146 -4 -322 -7 -176 -3 -392 -9 -480 -12 -88 -4
-195 -7 -237 -8 -43 0 -78 -5 -78 -10 0 -4 -6 -4 -13 3 -10 8 -17 7 -25 -1 -8
-8 -15 -8 -27 2 -8 7 -15 9 -15 4 0 -8 -107 -15 -297 -18 -46 0 -83 -4 -83 -7
0 -3 -12 -6 -27 -6 -56 1 -255 -13 -264 -19 -5 -3 -9 0 -9 6 0 6 -5 8 -12 3
-13 -8 -21 -9 -113 -13 -27 -2 -57 -7 -66 -11 -9 -5 -21 -3 -27 3 -7 7 -12 8
-12 3 0 -6 -26 -11 -58 -12 -78 -3 -267 -19 -267 -23 0 -1 -20 -3 -45 -5 -107
-6 -196 -18 -207 -26 -7 -7 -14 -6 -18 1 -3 6 -9 8 -13 6 -4 -2 -36 -7 -72
-11 -36 -4 -72 -8 -80 -10 -8 -1 -46 -6 -85 -10 -38 -4 -81 -9 -95 -10 -14 -2
-47 -6 -75 -9 -51 -6 -93 -12 -156 -21 -20 -3 -53 -8 -75 -11 -66 -8 -154 -21
-204 -29 -19 -3 -52 -7 -72 -8 -21 -1 -38 -4 -38 -7 0 -3 -8 -6 -17 -7 -43 -4
-142 -18 -193 -29 -19 -4 -39 -6 -44 -5 -5 1 -13 -4 -17 -11 -7 -11 -9 -11 -9
0 0 7 -4 10 -10 7 -11 -7 -38 -13 -93 -21 -47 -7 -72 -12 -72 -14 0 -1 -11 -3
-25 -6 -36 -6 -122 -23 -146 -28 -12 -2 -37 -7 -55 -10 -19 -3 -49 -10 -68
-15 -18 -6 -36 -10 -40 -9 -3 0 -8 -1 -11 -2 -8 -3 -42 -10 -70 -15 -14 -2
-25 -4 -25 -5 0 -1 -11 -4 -25 -6 -14 -2 -54 -12 -90 -21 -36 -9 -72 -17 -80
-18 -8 -1 -22 -5 -30 -8 -16 -7 -73 -17 -105 -20 -11 -1 -22 -5 -25 -9 -4 -5
-144 -44 -195 -53 -11 -2 -20 -4 -20 -5 0 -1 -7 -3 -15 -5 -8 -1 -58 -15 -110
-30 -52 -15 -99 -28 -105 -30 -5 -1 -17 -5 -25 -8 -8 -3 -28 -9 -45 -13 -16
-4 -32 -8 -35 -9 -3 -1 -20 -6 -38 -10 -18 -4 -35 -12 -38 -16 -3 -5 -10 -7
-15 -3 -5 3 -15 1 -22 -4 -7 -6 -29 -13 -49 -17 -21 -4 -38 -10 -38 -14 0 -3
-10 -7 -23 -8 -12 0 -35 -7 -52 -14 -16 -7 -34 -11 -39 -10 -4 1 -14 -4 -22
-10 -8 -6 -14 -9 -14 -6 0 4 -20 -2 -45 -13 -25 -11 -48 -19 -51 -19 -2 1 -17
-3 -32 -9 -15 -6 -36 -13 -47 -18 -11 -4 -24 -8 -30 -9 -5 0 -23 -6 -38 -13
-16 -7 -32 -12 -36 -12 -5 0 -26 -8 -47 -17 -22 -9 -41 -17 -44 -18 -3 0 -11
-4 -17 -8 -7 -5 -13 -6 -13 -2 0 3 -13 -1 -30 -10 -16 -9 -30 -13 -30 -9 0 3
-16 -3 -36 -15 -19 -12 -32 -15 -28 -9 4 7 -2 5 -13 -5 -11 -10 -24 -17 -29
-16 -9 3 -48 -12 -97 -37 -16 -8 -33 -12 -38 -8 -5 3 -9 0 -9 -7 0 -7 -3 -10
-6 -6 -3 3 -20 -2 -37 -12 -18 -9 -61 -28 -97 -41 -36 -13 -76 -30 -90 -37
-14 -7 -31 -13 -37 -13 -7 0 -13 -5 -13 -11 0 -5 -3 -8 -8 -5 -4 2 -30 -6 -57
-19 -28 -12 -53 -21 -57 -18 -5 2 -8 0 -8 -4 0 -5 -19 -17 -42 -27 -24 -10
-65 -29 -93 -41 -27 -12 -60 -25 -72 -29 -13 -4 -23 -12 -23 -17 0 -5 -9 -9
-20 -9 -11 0 -20 -4 -20 -8 0 -4 -10 -8 -21 -9 -12 -1 -29 -9 -38 -17 -10 -9
-22 -16 -27 -16 -13 0 -337 -163 -352 -178 -8 -7 -17 -10 -22 -7 -4 3 -13 -2
-20 -10 -7 -8 -19 -15 -27 -15 -8 0 -21 -7 -30 -15 -8 -8 -19 -13 -24 -10 -5
4 -9 2 -9 -2 0 -5 -26 -22 -57 -38 -32 -17 -60 -32 -63 -36 -3 -3 -21 -11 -40
-19 -19 -8 -44 -22 -54 -32 -11 -10 -25 -18 -32 -18 -7 0 -19 -6 -26 -12 -7
-7 -26 -20 -43 -28 -16 -8 -81 -45 -143 -82 -62 -38 -117 -68 -122 -68 -6 0
-10 -4 -10 -10 0 -5 -7 -10 -15 -10 -9 0 -18 -7 -21 -15 -4 -8 -10 -12 -15 -9
-5 3 -9 1 -9 -4 0 -4 -16 -14 -35 -22 -19 -8 -35 -17 -35 -21 0 -4 -15 -14
-32 -23 -37 -19 -66 -36 -85 -51 -43 -34 -74 -54 -95 -61 -10 -4 -18 -9 -18
-13 0 -3 -13 -12 -28 -19 -16 -6 -37 -20 -48 -30 -32 -28 -82 -62 -92 -62 -5
0 -17 -9 -27 -20 -10 -11 -20 -18 -23 -16 -2 3 -9 0 -16 -5 -47 -39 -64 -53
-96 -72 -19 -12 -46 -32 -60 -44 -14 -13 -30 -23 -35 -23 -6 0 -31 -18 -55
-40 -25 -22 -48 -40 -52 -40 -4 0 -16 -10 -28 -22 -11 -12 -20 -19 -20 -15 0
4 -42 -26 -93 -66 -94 -72 -105 -80 -184 -138 -24 -17 -43 -35 -43 -39 0 -5
-8 -11 -18 -14 -9 -3 -31 -18 -48 -33 -17 -16 -43 -37 -58 -48 -44 -31 -121
-97 -124 -106 -2 -5 -9 -9 -16 -9 -6 0 -18 -9 -26 -20 -8 -11 -19 -20 -25 -20
-6 0 -17 -9 -25 -20 -8 -11 -19 -20 -25 -20 -6 0 -28 -18 -48 -40 -20 -23 -37
-37 -37 -33 0 4 -6 0 -12 -8 -7 -9 -38 -35 -68 -59 -30 -25 -64 -54 -75 -65
-11 -11 -47 -42 -80 -70 -32 -27 -88 -77 -123 -110 -35 -33 -75 -67 -88 -75
-13 -8 -24 -20 -24 -27 0 -7 -4 -13 -9 -13 -9 0 -53 -39 -197 -177 -30 -28
-54 -49 -54 -47 0 3 -19 -16 -42 -42 -24 -26 -54 -57 -67 -68 -14 -12 -87 -82
-163 -158 -76 -75 -138 -134 -138 -131 0 3 -16 -15 -36 -39 -20 -23 -78 -84
-128 -135 -82 -82 -231 -239 -333 -349 -21 -23 -68 -74 -105 -113 -38 -38 -68
-72 -68 -75 0 -3 -12 -18 -28 -34 -120 -127 -152 -163 -184 -202 -20 -25 -49
-58 -63 -75 -28 -31 -44 -63 -51 -102 -2 -13 -6 -33 -8 -45 -2 -13 -7 -30 -9
-38 -3 -8 -8 -39 -11 -68 -4 -28 -9 -69 -13 -90 -3 -20 -6 -52 -7 -69 0 -18
-3 -33 -6 -33 -5 0 -9 -46 -13 -162 -1 -21 -5 -38 -9 -38 -4 0 -3 -11 2 -25 6
-17 6 -25 -1 -25 -6 0 -7 -5 -4 -10 6 -9 9 -63 18 -252 1 -27 5 -48 10 -48 4
0 6 -3 5 -7 -3 -13 10 -97 33 -198 15 -71 16 -74 19 -80 1 -3 3 -8 4 -12 7
-37 31 -110 39 -120 5 -7 7 -13 3 -13 -4 0 0 -13 9 -30 9 -16 13 -30 10 -30
-3 0 1 -13 9 -29 8 -15 25 -57 37 -92 23 -69 108 -246 139 -289 11 -15 17 -30
13 -33 -3 -4 2 -9 11 -13 9 -3 13 -10 10 -15 -3 -5 0 -9 5 -9 6 0 10 -3 9 -7
-3 -13 24 -63 34 -63 4 0 8 -7 8 -15 0 -9 4 -21 10 -28 46 -57 60 -76 60 -85
0 -6 4 -12 8 -14 5 -1 31 -34 60 -73 28 -38 56 -76 62 -82 6 -7 9 -13 6 -13
-5 0 41 -52 103 -119 18 -20 47 -53 65 -74 46 -57 166 -177 177 -177 5 0 9 -4
9 -8 0 -7 116 -125 154 -157 6 -5 43 -39 81 -75 39 -36 97 -87 130 -115 32
-27 71 -61 85 -75 38 -36 68 -60 133 -109 31 -24 57 -46 57 -50 0 -4 12 -14
28 -23 15 -9 42 -30 60 -47 17 -17 34 -31 38 -31 3 0 22 -12 42 -27 34 -26 54
-43 102 -85 11 -10 23 -18 26 -18 6 0 89 -60 119 -87 29 -26 112 -83 120 -83
3 0 12 -6 19 -12 8 -7 24 -20 36 -28 13 -8 32 -23 42 -32 10 -10 20 -18 22
-18 3 0 39 -22 80 -50 42 -27 79 -50 83 -50 5 0 14 -9 21 -20 7 -11 19 -20 27
-20 8 0 15 -4 15 -10 0 -5 7 -10 15 -10 8 0 15 -4 15 -10 0 -5 3 -9 8 -8 12 4
142 -83 142 -95 0 -5 3 -8 6 -4 3 3 39 -14 79 -39 40 -24 78 -44 84 -44 7 0
10 -4 7 -9 -3 -5 13 -18 37 -30 23 -11 65 -34 92 -51 28 -17 58 -33 68 -36 9
-4 17 -10 17 -14 0 -4 18 -15 40 -25 22 -10 40 -23 40 -28 0 -6 3 -8 6 -4 3 3
24 -5 45 -19 21 -13 41 -24 45 -24 3 0 18 -8 32 -18 48 -34 140 -80 146 -75 3
4 6 1 6 -6 0 -7 14 -17 30 -22 17 -6 30 -16 30 -22 0 -6 3 -7 6 -4 4 4 19 -1
33 -11 14 -10 40 -24 56 -32 17 -8 46 -24 65 -36 19 -11 85 -47 145 -78 61
-32 112 -62 113 -67 2 -5 9 -9 16 -9 12 0 99 -43 197 -98 31 -17 59 -28 63
-25 3 4 6 2 6 -4 0 -6 25 -21 55 -34 30 -13 55 -27 55 -31 0 -5 7 -8 15 -8 8
0 15 -5 15 -12 0 -6 3 -8 6 -5 4 3 16 1 28 -5 11 -7 24 -11 28 -10 3 1 12 -5
18 -13 7 -8 21 -15 31 -15 11 0 19 -4 19 -8 0 -5 16 -14 35 -22 19 -8 35 -17
35 -22 0 -4 4 -7 8 -6 7 3 201 -91 212 -102 3 -3 12 -6 20 -8 8 -2 24 -11 34
-20 15 -13 17 -13 11 -2 -7 13 -6 13 7 2 8 -7 42 -25 74 -41 33 -16 114 -56
182 -90 67 -33 122 -58 122 -55 0 3 7 -2 16 -10 8 -9 20 -14 25 -11 5 4 9 1 9
-4 0 -6 3 -10 8 -9 4 1 17 -3 30 -10 12 -7 22 -10 22 -7 0 3 10 -3 22 -15 12
-11 27 -20 33 -20 6 0 31 -10 56 -22 24 -12 46 -22 49 -23 3 0 35 -16 72 -34
37 -18 70 -32 72 -32 3 0 41 -17 83 -38 43 -22 94 -46 113 -54 19 -9 79 -36
133 -61 54 -25 110 -49 123 -52 13 -3 24 -10 24 -15 0 -5 11 -9 25 -9 14 0 25
-3 25 -7 0 -5 21 -17 48 -27 26 -11 76 -33 112 -49 36 -17 67 -31 70 -32 3 -1
18 -7 33 -13 16 -7 33 -12 38 -12 5 0 9 -4 9 -10 0 -5 8 -10 18 -10 10 0 23
-5 30 -12 7 -7 12 -9 12 -5 0 4 24 -6 54 -22 30 -17 57 -27 60 -24 3 4 6 0 6
-7 0 -7 3 -10 6 -7 4 4 19 0 33 -7 59 -32 147 -70 154 -68 4 1 7 -2 7 -6 0 -5
6 -9 13 -9 6 0 50 -18 97 -40 47 -22 114 -53 150 -69 36 -16 66 -32 68 -36 2
-4 10 -8 18 -8 13 0 104 -40 196 -85 25 -13 49 -21 52 -18 3 4 6 2 6 -3 0 -6
17 -16 38 -23 20 -8 76 -33 124 -56 48 -24 89 -40 92 -37 3 3 6 0 6 -6 0 -7 5
-12 10 -12 6 0 48 -18 95 -40 47 -22 89 -40 95 -40 5 0 10 -5 10 -11 0 -5 5
-7 11 -3 6 3 14 3 18 -2 3 -5 22 -16 41 -25 19 -10 64 -31 100 -47 36 -17 112
-53 170 -80 58 -27 120 -56 138 -63 17 -8 32 -17 32 -21 0 -5 5 -8 12 -8 6 0
34 -11 62 -24 28 -13 67 -31 86 -40 19 -8 42 -20 50 -26 23 -15 134 -63 143
-62 4 1 7 -3 7 -9 0 -5 4 -8 9 -5 5 3 14 -1 21 -9 7 -8 16 -12 21 -9 5 3 9 0
9 -5 0 -6 5 -11 11 -11 17 0 183 -82 191 -95 4 -5 8 -7 8 -3 0 4 49 -17 109
-47 60 -30 113 -55 119 -55 6 0 15 -7 20 -16 5 -9 12 -15 16 -14 4 1 25 -5 46
-14 22 -9 43 -16 46 -15 4 0 10 -4 13 -9 6 -9 55 -36 164 -87 31 -15 57 -31
57 -36 0 -5 3 -8 8 -7 9 3 287 -137 302 -152 3 -3 10 -6 17 -7 6 -2 45 -22 85
-46 40 -23 91 -51 113 -61 22 -11 42 -22 45 -25 6 -7 67 -41 130 -73 25 -12
46 -26 48 -30 2 -4 12 -8 22 -8 10 0 20 -4 22 -9 3 -10 176 -111 189 -111 5 0
9 -4 9 -9 0 -5 8 -11 18 -15 9 -3 50 -26 90 -51 41 -25 78 -45 83 -45 5 0 9
-4 9 -8 0 -5 10 -14 23 -20 12 -7 40 -23 62 -37 22 -14 47 -28 55 -32 8 -4 17
-9 20 -13 3 -3 22 -16 43 -28 20 -12 43 -26 50 -32 6 -6 35 -25 62 -42 28 -18
52 -35 55 -38 3 -3 20 -14 39 -24 19 -11 45 -28 57 -39 12 -10 25 -18 28 -18
4 1 13 -5 21 -13 8 -8 31 -24 52 -37 21 -13 44 -29 51 -36 7 -7 26 -20 42 -30
17 -9 30 -21 30 -25 0 -4 7 -8 15 -8 8 0 15 -4 15 -10 0 -5 6 -10 14 -10 8 0
16 -3 18 -7 2 -5 21 -20 43 -35 22 -15 55 -41 73 -57 17 -16 32 -28 32 -26 0
5 33 -20 62 -47 10 -10 18 -16 18 -13 0 6 45 -34 101 -88 21 -21 39 -36 39
-33 0 11 178 -172 299 -309 10 -11 31 -40 46 -65 15 -25 31 -47 34 -50 26 -20
171 -280 171 -306 0 -8 7 -28 15 -44 8 -16 16 -41 17 -55 1 -14 6 -25 9 -25 4
0 12 -21 18 -48 6 -26 14 -58 18 -72 3 -14 6 -37 7 -53 0 -15 3 -27 6 -27 11
0 16 -237 6 -325 -14 -135 -18 -153 -54 -255 -9 -25 -15 -48 -14 -52 1 -5 -2
-8 -6 -8 -5 0 -14 -18 -21 -40 -6 -21 -17 -45 -24 -52 -6 -7 -24 -29 -39 -48
-31 -41 -88 -103 -88 -96 0 2 -17 -13 -37 -33 -21 -21 -58 -51 -83 -67 -59
-37 -192 -103 -208 -104 -7 0 -20 -4 -30 -10 -30 -16 -184 -60 -193 -54 -5 3
-9 0 -9 -5 0 -6 -3 -10 -7 -9 -6 2 -106 -16 -153 -27 -3 -1 -32 -5 -65 -9 -33
-5 -69 -10 -79 -12 -17 -3 -117 -11 -231 -19 -22 -2 -40 -4 -40 -5 0 -1 -34
-2 -75 -4 -42 -1 -81 -5 -87 -9 -6 -4 -14 -3 -17 1 -4 7 -35 8 -56 2 -7 -2
-178 1 -320 6 -69 2 -134 4 -145 4 -34 -2 -39 -1 -73 4 -21 3 -30 2 -26 -5 4
-8 1 -8 -12 -1 -11 5 -53 11 -94 12 -170 5 -275 17 -347 39 -18 5 -33 7 -33 3
0 -3 -5 -1 -12 6 -7 7 -23 12 -36 12 -13 0 -21 4 -18 8 2 4 -3 8 -12 9 -9 1
-30 7 -47 14 -16 7 -34 14 -40 14 -5 1 -21 7 -35 13 -25 10 -61 24 -70 27 -3
0 -20 9 -37 18 -18 10 -33 15 -33 12 0 -3 -10 0 -22 7 -13 7 -26 13 -30 14 -5
1 -11 3 -15 4 -5 1 -11 2 -15 1 -5 0 -8 4 -8 9 0 6 -7 10 -15 10 -14 0 -53 18
-65 30 -3 3 -12 6 -20 8 -31 6 -125 46 -132 56 -4 6 -8 7 -8 2 0 -4 -10 -2
-22 6 -13 8 -43 22 -68 32 -25 10 -56 23 -70 29 -14 6 -27 11 -30 12 -21 6
-66 31 -72 40 -4 5 -8 7 -8 3 0 -7 -52 15 -180 74 -66 30 -111 50 -120 53 -28
7 -50 18 -50 24 0 4 -10 8 -22 8 -13 1 -24 7 -26 13 -2 5 -8 10 -13 10 -5 0
-25 7 -45 15 -19 8 -38 15 -42 16 -4 0 -16 6 -27 12 -11 6 -22 12 -25 12 -3 1
-27 12 -55 25 -27 13 -75 34 -105 48 -30 13 -71 32 -92 42 -20 10 -39 16 -42
13 -3 -4 -6 -2 -6 4 0 6 -12 14 -27 18 -15 3 -54 20 -87 37 -34 16 -70 32 -81
34 -11 2 -21 8 -23 14 -2 5 -15 10 -28 10 -13 0 -24 5 -24 10 0 6 -7 10 -15
10 -8 0 -30 9 -50 20 -20 11 -42 20 -50 20 -8 0 -15 4 -15 8 0 5 -19 15 -42
23 -24 7 -67 26 -96 41 -29 16 -60 28 -68 28 -8 0 -14 4 -14 8 0 5 -6 9 -12 9
-7 0 -57 21 -111 46 -54 26 -99 47 -102 47 -2 0 -46 20 -97 44 -141 66 -186
85 -192 78 -3 -3 -6 0 -6 6 0 7 -6 12 -14 12 -8 0 -21 6 -28 12 -7 7 -22 15
-33 16 -11 2 -23 9 -26 14 -4 6 -11 8 -17 4 -6 -3 -16 0 -24 7 -7 8 -30 19
-51 26 -20 7 -39 17 -42 22 -4 5 -15 9 -26 9 -10 0 -19 4 -19 9 0 5 -20 15
-45 22 -25 7 -45 17 -45 21 0 4 -6 8 -14 8 -7 0 -43 15 -80 34 -36 19 -66 32
-66 29 0 -2 -17 5 -37 15 -54 29 -164 78 -190 86 -13 4 -23 12 -23 17 0 5 -3
8 -7 7 -15 -3 -63 14 -63 23 0 5 -7 9 -15 9 -8 0 -23 4 -33 10 -15 9 -237 113
-254 119 -4 2 -17 5 -28 8 -11 3 -20 9 -20 14 0 5 -6 9 -13 9 -7 0 -35 11 -63
24 -77 37 -149 70 -154 71 -3 1 -34 15 -70 32 -110 52 -158 73 -169 73 -5 0
-11 5 -13 11 -2 5 -10 11 -18 13 -8 1 -29 10 -47 19 -18 9 -39 17 -48 17 -8 0
-15 5 -15 10 0 6 -7 10 -16 10 -8 0 -35 11 -58 25 -24 14 -46 22 -49 18 -4 -3
-7 -1 -7 6 0 7 -4 10 -9 7 -5 -3 -14 1 -21 9 -7 8 -19 15 -27 15 -9 0 -41 13
-72 29 -31 16 -74 36 -96 46 -22 9 -71 32 -110 50 -38 18 -90 42 -115 53 -25
11 -90 41 -145 67 -55 26 -105 48 -111 49 -6 1 -22 9 -35 17 -13 9 -36 19 -51
23 -16 3 -28 11 -28 17 0 6 -4 8 -8 5 -5 -3 -30 6 -55 19 -26 13 -47 21 -47
18 0 -4 -8 1 -17 9 -21 18 -80 38 -126 43 -17 2 -52 6 -77 9 -25 3 -67 8 -93
11 -26 2 -52 7 -57 10 -6 3 -10 1 -10 -6 0 -7 -4 -8 -12 -2 -13 9 -76 9 -183
-2 -65 -6 -79 -8 -142 -23 -24 -5 -43 -8 -43 -5 0 3 -7 0 -15 -7 -8 -7 -15
-10 -15 -7 0 11 -158 -61 -203 -91 -49 -33 -208 -193 -207 -207 1 -3 -5 -12
-12 -20 -35 -39 -53 -72 -49 -89 1 -5 -2 -12 -7 -15 -10 -7 -42 -70 -42 -83 0
-4 -8 -27 -18 -51 -20 -45 -40 -103 -47 -137 -3 -11 -8 -30 -11 -42 -3 -13 -7
-32 -9 -43 -2 -11 -4 -20 -5 -20 -2 0 -4 -9 -5 -20 -1 -11 -7 -51 -14 -90 -6
-38 -13 -97 -15 -131 -1 -33 -6 -66 -10 -72 -4 -7 -2 -12 4 -12 6 0 8 -5 5
-11 -20 -32 -23 -889 -4 -889 4 0 7 -22 6 -48 0 -27 2 -53 5 -58 3 -5 9 -38
14 -74 8 -66 10 -78 13 -82 2 -2 4 -16 6 -32 2 -16 7 -36 11 -45 3 -9 8 -29 9
-46 2 -16 10 -49 19 -72 8 -24 13 -43 10 -43 -2 0 3 -17 11 -37 9 -20 13 -43
11 -49 -3 -7 -1 -14 3 -16 4 -2 27 -59 50 -128 42 -122 152 -358 175 -372 6
-4 7 -8 2 -8 -5 0 -3 -8 5 -17 20 -25 39 -61 39 -73 0 -5 7 -18 14 -27 8 -10
45 -61 82 -113 37 -52 70 -97 74 -100 4 -3 18 -23 33 -44 54 -80 302 -335 390
-400 14 -11 24 -23 21 -28 -3 -4 -1 -8 5 -8 6 0 21 -10 35 -23 13 -12 38 -34
55 -49 16 -16 32 -28 36 -28 5 0 42 -32 89 -75 6 -6 29 -24 51 -40 22 -17 49
-38 59 -47 11 -10 23 -18 26 -18 4 0 18 -9 31 -21 13 -11 33 -28 44 -37 11
-10 41 -31 67 -47 27 -17 48 -33 48 -37 0 -5 7 -8 15 -8 8 0 25 -11 39 -25 14
-14 27 -25 30 -25 2 0 32 -18 65 -40 33 -22 65 -40 71 -40 5 0 10 -4 10 -10 0
-5 7 -10 15 -10 8 0 15 -4 15 -10 0 -5 6 -10 14 -10 8 0 16 -4 18 -8 4 -10
146 -92 159 -92 5 0 9 -5 9 -11 0 -5 5 -7 10 -4 6 3 10 3 10 -2 0 -4 30 -24
68 -43 37 -19 69 -38 70 -43 2 -4 8 -5 13 -1 5 3 9 0 9 -6 0 -6 4 -9 9 -5 5 3
13 1 16 -5 6 -9 160 -92 175 -95 16 -2 70 -31 70 -37 0 -5 7 -8 15 -8 8 0 30
-9 49 -19 19 -11 43 -21 53 -23 10 -2 20 -5 23 -8 3 -3 28 -15 55 -28 28 -13
62 -30 78 -38 15 -8 32 -12 37 -9 6 3 10 1 10 -6 0 -7 3 -9 7 -6 3 4 11 3 17
-2 15 -13 288 -122 306 -123 8 -1 17 -5 20 -9 3 -5 15 -10 25 -12 11 -2 29 -7
40 -11 11 -5 43 -16 70 -27 101 -37 169 -59 173 -54 2 2 11 -3 19 -11 8 -8 19
-12 24 -9 5 4 9 1 9 -5 0 -6 4 -9 10 -5 5 3 17 1 27 -4 21 -12 104 -35 116
-33 4 1 7 -3 7 -8 0 -5 3 -9 8 -8 4 1 23 -3 42 -9 19 -6 69 -21 110 -33 41
-12 82 -24 90 -27 8 -3 24 -8 35 -10 11 -2 27 -6 35 -10 8 -3 26 -8 40 -10 14
-2 34 -7 45 -12 23 -10 88 -29 125 -36 14 -3 59 -14 100 -26 41 -11 84 -22 95
-25 11 -2 31 -6 45 -10 14 -3 31 -6 38 -6 6 -1 12 -4 12 -8 0 -4 10 -7 23 -7
12 0 29 -2 37 -5 8 -4 44 -12 80 -19 36 -7 68 -14 73 -15 4 -1 8 -3 10 -4 1
-1 11 -4 22 -6 38 -5 80 -15 95 -20 8 -3 29 -8 45 -10 30 -4 65 -11 75 -14 3
-1 9 -2 13 -1 5 1 25 -3 45 -8 33 -9 64 -15 127 -26 11 -2 20 -4 20 -5 0 -1
14 -3 30 -5 17 -3 45 -7 63 -10 17 -3 44 -7 60 -9 15 -3 38 -7 52 -10 24 -6
51 -10 145 -22 61 -8 87 -12 120 -19 17 -4 46 -8 65 -10 19 -2 58 -7 85 -11
28 -3 64 -7 80 -9 17 -2 30 -4 30 -5 0 -1 11 -3 25 -4 14 -2 48 -6 75 -9 70
-9 155 -20 185 -23 14 -1 25 -3 25 -4 0 -1 20 -3 45 -5 25 -2 68 -7 95 -10 28
-4 68 -8 90 -10 22 -2 65 -7 95 -11 30 -3 69 -7 85 -7 17 0 33 -5 37 -11 5 -7
8 -7 8 2 0 7 4 11 9 7 11 -6 58 -12 176 -21 44 -3 100 -8 125 -10 52 -5 158
-12 246 -18 34 -2 67 -7 73 -10 6 -4 11 -2 11 4 0 6 5 8 10 5 6 -4 55 -9 108
-11 53 -3 126 -7 162 -8 36 -2 67 -5 70 -6 3 -1 10 -1 15 0 27 6 52 5 69 -3
13 -6 16 -6 12 2 -8 12 6 15 18 4 9 -10 46 -11 46 -2 0 4 12 4 28 0 31 -8 64
-7 81 3 6 4 11 2 11 -5 0 -8 4 -8 15 1 8 7 15 8 15 3 0 -10 102 -9 119 1 6 4
11 2 11 -5 0 -8 4 -8 15 1 8 7 15 8 15 3 0 -10 102 -9 119 1 6 4 11 3 11 -2 0
-9 51 -7 77 3 7 2 15 0 19 -6 4 -6 11 -6 20 2 11 9 14 9 14 0 0 -7 5 -9 11 -6
17 11 59 13 59 3 0 -5 9 -4 20 2 15 8 20 8 20 -2 0 -8 3 -9 8 -3 4 6 45 11 92
11 95 2 405 12 405 14 0 0 63 3 139 6 88 3 145 9 155 17 11 9 13 9 8 0 -6 -9
3 -11 30 -7 21 2 81 6 133 9 89 4 144 8 315 21 39 3 100 6 136 8 36 2 71 6 77
10 7 4 12 2 12 -5 0 -8 4 -8 13 -2 6 6 19 10 27 10 27 1 194 14 235 19 22 2
60 7 85 10 25 3 61 7 80 9 19 1 35 4 35 5 0 1 20 3 45 5 25 2 61 7 80 10 19 3
51 8 70 10 19 2 46 6 60 9 14 2 41 7 60 10 19 3 45 8 56 10 12 2 37 7 55 10
19 3 45 8 59 11 79 16 137 27 150 29 8 1 24 5 35 9 11 3 36 9 55 12 19 3 62
13 95 21 60 16 75 20 116 29 12 2 36 9 54 15 18 6 42 13 54 15 38 9 55 13 141
39 47 15 92 29 100 33 8 3 19 5 24 4 4 -1 14 4 22 10 8 6 14 9 14 6 0 -4 30 5
68 20 37 14 74 27 82 28 8 2 16 4 18 5 1 2 5 3 10 5 4 1 20 7 35 13 16 7 33
12 38 12 5 0 26 9 46 20 21 11 44 20 51 20 7 0 31 9 52 20 22 11 40 18 40 15
0 -4 12 1 28 9 15 8 45 23 67 32 22 9 95 43 163 75 67 33 127 59 132 59 6 0
10 5 10 12 0 6 3 9 6 5 4 -3 22 5 42 18 19 13 39 22 44 19 4 -3 8 0 8 6 0 6
14 16 30 21 17 6 30 16 30 22 0 6 3 8 6 4 7 -6 134 70 146 88 4 5 8 6 8 2 0
-4 10 1 22 13 12 11 26 20 30 20 8 0 67 39 78 51 3 3 32 24 65 46 33 22 71 50
84 62 13 12 27 21 31 21 4 0 18 11 31 23 13 13 61 54 107 90 45 37 104 88 131
114 27 27 77 75 112 109 35 34 102 103 149 154 47 51 93 100 103 109 9 8 17
21 17 27 0 7 3 14 8 16 12 5 102 127 102 139 0 5 5 7 10 4 6 -3 10 1 10 9 0 9
5 16 10 16 6 0 10 5 10 11 0 6 10 24 21 41 12 16 34 53 49 81 40 75 144 281
146 287 0 3 10 27 22 53 12 27 22 57 22 66 0 10 3 21 8 25 4 4 7 11 7 14 1 7
33 107 42 132 8 18 7 15 22 70 12 40 16 58 24 95 2 6 6 16 10 22 5 7 5 17 2
23 -3 6 -2 10 4 10 5 0 8 9 6 20 -2 11 1 20 6 20 6 0 8 4 5 9 -4 5 1 36 9 70
9 33 18 77 21 98 3 21 6 45 8 53 2 13 9 64 22 170 1 14 6 48 10 75 10 64 10
898 0 985 -11 99 -15 141 -19 190 -3 25 -8 66 -12 90 -4 25 -9 56 -11 70 -1
14 -5 36 -8 50 -2 14 -7 42 -10 63 -4 21 -13 71 -20 110 -8 40 -17 86 -19 104
-3 17 -8 37 -12 43 -3 5 -9 23 -12 38 -8 42 -11 57 -13 57 -1 0 -3 9 -5 20 -2
11 -8 37 -13 58 -6 20 -7 37 -3 37 3 0 1 4 -4 8 -6 4 -21 50 -35 102 -13 52
-30 110 -37 128 -7 17 -11 32 -8 32 4 0 -1 10 -9 22 -9 12 -16 28 -16 34 0 6
-8 29 -17 50 -9 22 -18 44 -19 49 -2 11 -32 80 -72 165 -14 30 -26 60 -28 67
-6 30 -78 164 -183 341 -17 29 -31 55 -31 58 0 9 -83 129 -92 132 -4 2 -8 10
-8 18 0 8 -7 17 -15 20 -8 4 -12 10 -9 15 3 5 1 9 -3 9 -5 0 -19 18 -33 40
-14 22 -28 40 -32 40 -4 0 -10 10 -14 23 -3 12 -13 29 -20 37 -43 48 -74 89
-74 98 0 6 -4 12 -9 14 -6 2 -33 32 -61 68 -78 100 -91 116 -142 173 -27 28
-48 55 -48 59 0 5 -7 8 -17 8 -9 0 -14 3 -10 6 7 7 1 14 -128 149 -58 61 -108
114 -112 118 -23 25 -237 227 -240 227 -2 0 -14 10 -27 23 -12 12 -42 38 -66
57 -24 19 -53 44 -64 55 -18 18 -109 91 -215 174 -19 14 -40 32 -47 39 -7 6
-17 12 -23 12 -6 0 -11 5 -11 10 0 6 -11 15 -25 20 -14 5 -25 14 -25 20 0 5
-7 10 -15 10 -8 0 -15 5 -15 10 0 6 -7 10 -15 10 -8 0 -15 3 -15 8 0 4 -30 27
-67 52 -38 25 -74 51 -81 58 -7 6 -17 12 -22 12 -5 0 -22 11 -37 25 -45 40
-48 42 -71 49 -12 4 -22 12 -22 17 0 6 -4 7 -10 4 -5 -3 -10 -2 -10 4 0 6 -11
13 -24 17 -14 3 -27 12 -30 20 -3 8 -12 14 -21 14 -8 0 -15 5 -15 10 0 6 -7
10 -15 10 -9 0 -18 7 -21 15 -4 8 -11 15 -18 15 -6 0 -42 20 -79 45 -38 25
-73 45 -78 45 -5 0 -9 4 -9 9 0 5 -8 11 -17 14 -19 6 -75 38 -83 48 -3 3 -20
12 -37 20 -18 8 -33 18 -33 22 0 5 -4 6 -9 2 -6 -3 -13 0 -18 7 -4 7 -19 19
-32 26 -13 8 -40 23 -60 34 -20 11 -41 24 -47 29 -6 5 -14 6 -17 2 -4 -3 -7
-1 -7 6 0 7 -4 10 -9 7 -4 -3 -16 3 -25 13 -10 11 -32 25 -49 32 -18 7 -44 21
-58 30 -14 10 -28 16 -31 13 -3 -2 -11 2 -18 11 -7 8 -17 15 -23 15 -6 0 -22
10 -35 23 -14 12 -22 15 -18 7 4 -8 1 -7 -7 3 -9 10 -18 18 -21 17 -8 -1 -119
52 -126 60 -3 3 -20 12 -37 19 -18 8 -33 17 -33 22 0 5 -3 8 -7 7 -13 -3 -153
65 -153 74 0 4 -6 8 -13 8 -7 0 -50 18 -95 40 -44 22 -86 40 -92 40 -5 0 -10
4 -10 9 0 5 -9 11 -20 14 -29 7 -29 7 -90 37 -30 15 -73 36 -95 46 -22 10 -43
23 -47 28 -4 6 -8 7 -8 3 0 -4 -10 -2 -22 5 -13 6 -27 13 -33 14 -5 1 -41 16
-80 34 -123 56 -140 63 -152 63 -7 0 -13 4 -13 9 0 4 -5 8 -11 8 -6 0 -27 7
-47 16 -123 54 -155 67 -177 71 -10 2 -22 7 -25 12 -4 7 -75 34 -90 34 -3 0
-11 7 -19 14 -7 8 -20 12 -27 9 -8 -3 -14 0 -14 6 0 6 -3 8 -7 5 -3 -4 -11 -3
-17 2 -6 5 -47 24 -91 41 -44 18 -91 37 -105 43 -14 5 -28 10 -32 9 -5 -1 -8
3 -8 9 0 5 -4 7 -10 4 -5 -3 -10 -1 -10 6 0 7 -3 9 -6 6 -4 -3 -16 -1 -28 5
-11 7 -26 13 -33 14 -7 1 -27 9 -44 18 -18 9 -38 16 -45 16 -7 0 -20 7 -28 16
-9 8 -16 13 -16 10 0 -4 -17 2 -37 13 -21 10 -40 19 -43 19 -5 1 -56 19 -80
29 -8 3 -17 7 -20 8 -3 1 -23 10 -45 20 -22 10 -42 19 -45 20 -3 1 -22 9 -44
18 -21 9 -42 17 -46 17 -5 0 -21 7 -37 15 -35 18 -142 65 -149 65 -3 0 -26 10
-52 22 -26 12 -49 23 -52 23 -3 1 -16 6 -30 12 -90 38 -105 44 -107 44 -15 -4
-23 1 -18 9 3 6 0 10 -9 10 -8 0 -74 25 -148 56 -168 71 -188 79 -273 116 -38
17 -83 37 -100 44 -16 7 -67 28 -112 48 -45 20 -85 36 -87 36 -3 0 -31 12 -63
27 -32 15 -61 26 -65 25 -5 -1 -8 2 -8 8 0 6 -3 9 -7 8 -9 -1 -41 9 -67 24
-10 5 -28 11 -39 14 -11 2 -24 9 -27 15 -4 6 -11 11 -16 11 -14 1 -105 37
-146 59 -10 5 -23 9 -29 9 -6 0 -25 10 -42 22 -18 13 -33 22 -34 21 -4 -3 -30
6 -91 33 -29 13 -57 24 -62 24 -6 0 -10 5 -10 10 0 6 -7 10 -15 10 -8 0 -23 4
-33 9 -23 13 -136 65 -142 66 -3 0 -21 9 -40 20 -19 11 -37 19 -40 20 -3 0
-50 22 -105 50 -55 27 -106 50 -113 51 -8 1 -22 10 -31 18 -10 9 -25 16 -34
16 -8 0 -22 6 -29 13 -17 16 -131 72 -140 69 -5 -1 -8 3 -8 10 0 6 -3 8 -6 5
-4 -4 -20 3 -35 14 -16 11 -29 17 -29 13 0 -4 -8 0 -17 8 -10 9 -53 32 -95 52
-43 20 -78 41 -78 47 0 6 -4 8 -8 5 -5 -3 -24 5 -43 17 -19 12 -40 23 -48 25
-7 1 -19 9 -27 17 -8 7 -30 19 -49 25 -19 6 -35 16 -35 21 0 5 -9 9 -19 9 -10
0 -21 6 -24 14 -3 8 -19 17 -36 21 -17 4 -31 10 -31 14 0 5 -27 20 -60 35 -33
15 -60 31 -60 35 0 4 -27 20 -60 36 -33 16 -60 31 -60 34 0 8 -51 31 -67 31
-7 0 -13 4 -13 9 0 5 -26 24 -57 42 -32 18 -66 39 -75 47 -10 8 -18 12 -18 9
0 -3 -29 14 -65 38 -36 25 -68 45 -72 45 -3 0 -21 11 -38 25 -18 13 -35 22
-37 19 -3 -2 -11 2 -18 11 -7 8 -19 15 -27 15 -8 0 -11 5 -8 10 3 6 2 10 -4
10 -6 0 -37 17 -68 37 -32 21 -61 36 -65 35 -5 -1 -8 2 -8 7 0 5 -8 12 -17 15
-10 3 -31 18 -48 32 -16 14 -43 33 -59 41 -16 8 -38 24 -49 34 -12 10 -27 19
-34 19 -7 0 -13 5 -13 10 0 6 -5 10 -10 10 -6 0 -21 9 -33 21 -12 11 -42 35
-67 52 -25 17 -46 34 -48 39 -2 4 -10 8 -18 8 -8 0 -14 4 -14 8 0 4 -12 15
-27 25 -16 9 -44 31 -64 49 -21 18 -50 42 -65 53 -16 11 -39 30 -51 42 -13 12
-23 19 -23 16 0 -3 -17 11 -39 33 -21 21 -54 52 -72 67 -48 40 -231 212 -292
275 -29 30 -85 87 -124 128 -40 41 -73 77 -73 79 0 2 -14 18 -31 37 -51 55
-59 64 -59 70 0 3 -17 23 -37 45 -21 22 -54 59 -73 83 -19 23 -40 48 -47 55
-7 7 -14 18 -15 25 -2 6 -20 30 -40 53 -21 23 -38 47 -38 52 0 6 -9 17 -20 25
-11 8 -20 20 -20 27 0 7 -3 13 -8 13 -4 0 -18 18 -32 40 -14 22 -28 40 -32 40
-5 0 -8 9 -8 20 0 11 -4 20 -10 20 -5 0 -10 6 -10 14 0 8 -4 16 -9 18 -4 2
-32 39 -62 83 -29 44 -58 83 -64 87 -5 4 -6 8 -2 8 5 0 -1 12 -12 26 -12 15
-21 32 -21 38 0 10 57 100 82 131 33 40 108 146 108 152 0 4 13 22 28 40 15
18 34 41 42 51 19 25 111 131 128 148 6 7 12 16 12 19 0 8 263 270 322 323 21
17 42 32 48 32 5 0 10 4 10 9 0 9 80 78 130 111 21 14 33 24 79 63 12 9 25 17
30 17 5 0 11 4 13 9 2 5 32 27 68 50 36 22 70 45 77 51 7 5 15 10 18 10 4 0
13 6 20 13 34 30 43 35 49 30 3 -4 6 -1 6 5 0 7 6 12 13 12 7 0 29 11 48 25
20 13 39 22 41 19 3 -2 11 2 18 11 7 8 19 15 26 15 8 0 14 4 14 9 0 7 28 19
47 19 3 0 9 4 12 9 8 10 116 63 130 63 6 0 11 3 11 8 0 8 15 15 125 59 39 15
71 31 73 35 2 4 19 10 38 14 19 3 34 11 34 17 0 6 3 7 6 4 4 -3 16 -1 28 5 11
7 27 13 34 15 27 6 38 10 67 23 17 7 33 14 38 15 4 2 8 3 10 5 1 1 9 3 17 5
14 3 113 38 150 52 8 4 18 5 23 5 4 -1 7 2 7 6 0 4 8 8 18 9 19 2 40 7 62 16
8 4 24 8 35 10 11 2 29 7 40 11 60 23 131 41 137 35 2 -1 13 3 25 9 12 7 39
15 60 18 21 3 43 9 48 12 12 8 42 14 73 15 12 1 22 4 22 7 0 4 6 7 13 7 24 1
85 13 108 21 13 5 33 8 43 6 11 -1 25 0 30 4 6 3 20 8 31 10 11 1 28 4 37 5
10 2 21 6 24 10 4 4 13 2 21 -4 7 -6 13 -7 13 -2 0 5 6 10 13 11 22 1 91 11
126 17 19 3 55 8 80 11 25 2 66 7 91 9 25 3 68 7 95 10 28 2 50 4 50 5 0 2
217 11 305 13 47 1 90 6 96 9 6 4 14 4 18 0 4 -3 37 -7 74 -8 58 -2 141 -10
192 -18 9 -1 21 -5 28 -10 6 -4 17 -4 22 -1 6 3 10 1 10 -4 0 -6 3 -10 8 -9
13 4 112 -24 112 -31 0 -4 10 -8 22 -8 13 -1 24 -7 26 -13 2 -5 10 -10 19 -10
8 0 26 -9 40 -20 14 -11 32 -20 39 -20 8 0 14 -4 14 -8 0 -4 14 -16 30 -26 30
-17 114 -96 103 -96 -3 0 5 -8 18 -19 13 -10 42 -45 64 -77 22 -33 43 -61 46
-64 4 -3 17 -27 30 -55 13 -27 40 -78 61 -112 21 -35 38 -67 38 -73 0 -5 5
-10 11 -10 5 0 7 -4 4 -10 -3 -5 -3 -10 2 -10 4 0 13 -10 19 -23 6 -12 26 -51
44 -87 18 -36 33 -71 33 -77 0 -7 4 -13 9 -13 4 0 7 -3 6 -7 -2 -10 45 -107
60 -125 5 -7 11 -17 11 -23 3 -23 13 -45 22 -45 6 0 8 -4 5 -8 -2 -4 11 -38
29 -75 19 -37 32 -67 29 -67 -3 0 1 -10 8 -22 7 -13 13 -25 14 -28 0 -3 4 -14
8 -25 4 -11 13 -33 19 -50 6 -16 27 -64 46 -105 19 -41 35 -77 36 -80 0 -3 16
-34 35 -70 19 -36 37 -69 39 -75 2 -5 10 -18 19 -27 8 -10 12 -18 8 -18 -11 0
62 -127 141 -246 40 -60 73 -115 73 -122 0 -7 4 -12 9 -12 5 0 12 -8 15 -17 3
-10 19 -31 34 -48 15 -16 34 -39 42 -51 24 -34 103 -125 135 -156 37 -35 189
-138 204 -138 6 0 11 -5 11 -11 0 -5 5 -7 10 -4 6 3 10 1 10 -4 0 -6 3 -10 8
-9 7 1 21 -4 91 -33 24 -11 52 -19 62 -19 11 0 19 -5 19 -10 0 -6 3 -9 8 -8 4
1 39 -4 77 -12 39 -7 76 -13 83 -13 6 0 12 -4 12 -8 0 -4 8 -6 18 -4 9 1 27
-1 38 -6 13 -4 26 -3 33 4 6 6 11 7 11 1 0 -9 48 -13 213 -17 53 -1 97 2 97 6
0 4 9 3 20 -3 11 -6 20 -7 20 -2 0 5 17 8 38 7 20 -1 56 4 80 11 25 7 42 8 42
2 0 -5 6 -6 13 -1 6 4 17 8 22 9 6 1 26 5 45 9 19 4 44 9 55 10 11 2 21 4 23
5 1 2 7 4 12 5 6 1 11 3 13 5 1 1 9 3 17 5 8 1 35 9 60 16 25 7 47 13 50 13 3
1 10 4 15 7 6 4 22 9 36 12 14 4 43 14 65 24 21 9 41 17 44 18 21 5 67 23 136
56 45 22 87 39 93 39 6 0 11 4 11 9 0 5 14 12 30 16 17 4 30 11 30 16 0 6 4 8
9 4 5 -3 16 1 24 9 8 8 46 31 83 51 79 42 100 54 126 75 10 8 21 14 24 12 2
-1 11 3 20 10 8 7 20 18 27 23 7 6 24 16 38 23 14 8 49 31 77 52 28 21 53 36
56 33 3 -4 6 -1 6 5 0 7 7 12 16 12 8 0 12 5 9 10 -3 6 1 10 9 10 9 0 16 5 16
11 0 5 4 8 9 5 4 -3 16 3 26 14 10 11 22 20 26 20 8 0 16 6 77 58 15 12 35 25
45 28 9 3 17 8 17 12 0 4 18 18 40 32 22 14 40 28 40 32 0 5 7 8 15 8 8 0 20
9 27 20 7 11 18 20 25 20 7 0 13 4 13 10 0 5 12 16 28 24 15 8 43 28 62 45 19
17 38 31 41 31 3 0 23 16 45 35 48 44 59 53 109 90 22 17 45 35 51 40 6 6 37
33 69 60 32 28 67 58 77 68 10 9 18 15 18 12 0 -3 8 3 18 13 11 9 28 25 38 34
10 9 24 23 30 30 6 7 22 22 35 32 72 58 145 122 152 133 4 7 14 18 22 25 8 7
44 40 80 73 75 68 525 512 525 519 0 8 112 116 121 116 5 0 9 4 9 9 0 5 23 32
50 60 28 28 48 51 45 51 -3 0 31 36 74 80 44 44 88 91 99 105 11 13 62 70 113
126 52 55 99 109 104 118 6 10 26 35 46 57 85 92 109 119 109 127 0 5 5 5 10
2 6 -3 10 1 10 9 0 9 4 16 9 16 5 0 12 8 15 18 4 9 25 38 49 64 72 80 131 150
155 182 33 46 74 94 102 122 14 13 22 24 19 24 -3 0 16 23 43 52 26 28 48 55
48 60 0 5 10 19 23 32 12 13 42 47 67 76 25 29 60 70 78 90 17 21 32 40 32 44
0 4 11 19 25 34 14 15 38 42 53 59 15 18 42 49 59 70 18 21 28 40 23 41 -6 2
-7 9 -3 15 4 6 8 29 9 51 3 39 8 85 19 171 3 22 7 63 9 92 2 28 6 55 8 60 5 8
10 74 12 173 1 31 5 60 9 66 3 6 4 14 0 18 -3 3 -7 70 -9 148 -2 137 -5 174
-19 263 -9 56 -13 78 -30 153 -3 12 -7 30 -9 41 -2 10 -15 51 -27 92 -13 41
-23 76 -24 79 -1 3 -10 23 -20 45 -10 22 -17 46 -16 53 1 6 -4 12 -10 12 -7 0
-9 3 -6 6 4 4 -3 20 -14 35 -11 16 -18 29 -14 29 3 0 -1 10 -9 23 -8 12 -15
26 -14 30 0 5 -15 32 -33 60 -19 29 -35 56 -38 61 -4 10 -26 37 -59 74 -13 14
-35 42 -50 61 -33 43 -125 134 -183 181 -24 19 -53 45 -66 58 -12 12 -27 22
-33 22 -5 0 -10 5 -10 10 0 6 -7 10 -15 10 -8 0 -15 5 -15 10 0 6 -5 10 -11
10 -7 0 -20 10 -30 22 -11 11 -19 18 -19 14 0 -8 -80 52 -92 69 -4 5 -8 6 -8
2 0 -4 -26 10 -59 32 -32 22 -61 37 -65 34 -3 -4 -6 -1 -6 5 0 7 -6 12 -14 12
-8 0 -16 4 -18 8 -1 4 -29 21 -60 36 -32 16 -58 33 -58 38 0 4 -3 7 -7 6 -5
-1 -53 20 -108 48 l-101 51 -134 3 c-74 1 -153 2 -174 1 -22 0 -45 4 -53 10
-9 8 -13 8 -13 0 0 -11 -48 -9 -68 3 -6 3 -12 1 -14 -5 -3 -9 -9 -9 -26 0 -15
8 -22 8 -22 1 0 -6 -4 -9 -9 -5 -10 5 -281 16 -483 19 -54 0 -98 5 -98 10 0 5
-6 3 -14 -3 -10 -9 -16 -9 -21 -1 -5 8 -11 8 -21 -1 -9 -7 -14 -8 -14 -1 0 11
-18 11 -37 -1 -7 -5 -13 -4 -13 0 0 5 -52 8 -115 8 -63 0 -115 4 -115 9 0 5
-6 3 -13 -3 -8 -6 -17 -8 -20 -5 -7 7 -96 10 -632 20 -319 5 -1444 12 -1448 7z"/>
</g>
</svg>
